
<svg xmlns="http://www.w3.org/2000/svg" aria-hidden="true" style="position:absolute;width:0;height:0;overflow:hidden">
  <defs>
    <symbol id="ukraine" viewBox="0 0 32 32">
<path fill="#406ab5" style="fill: var(--color1, #406ab5)" d="M17 8l4-1v2l2 2h3v1l4 1-1 2 1 2h-1l-1 2-5 3 1 2 2-1-1 2-4 2v-1l-2-1v-1l1-2h-2l-1 2-1-1-2 2h-1l-1-1 1-2 2-2-4-4-3 1-1 1h-4l-1-2 2-1v-2l2-1-1-3 3-1 5 2 1-1 1 2z"></path>
<path fill="#fcdf65" style="fill: var(--color2, #fcdf65)" d="M29 17l-6 5 1 2 2-1-1 2-4 2v-1l-2-1v-1l1-2h-2l-1 2-1-1-2 2h-1l-1-1 1-2 2-2-3-3z"></path>
<path fill="#4d4d4d" style="fill: var(--color3, #4d4d4d)" d="M30.118 15l0.777-1.553c0.066-0.13 0.105-0.284 0.105-0.446 0-0.466-0.319-0.858-0.75-0.969l-0.007-0.002-3.243-0.81v-0.22c0-0.552-0.448-1-1-1v0h-2.586l-1.414-1.414v-1.586c0-0.552-0.448-1-1-1-0.086 0-0.17 0.011-0.25 0.032l0.007-0.002-4 1c-0.24 0.060-0.45 0.208-0.589 0.415l-1.044 1.567-0.23-0.46c-0.168-0.329-0.505-0.551-0.894-0.551-0.276 0-0.526 0.112-0.707 0.292l-0.534 0.534-4.387-1.757c-0.11-0.045-0.238-0.071-0.371-0.071-0.113 0-0.222 0.019-0.324 0.053l0.007-0.002-3 1c-0.401 0.136-0.684 0.509-0.684 0.949 0 0.113 0.019 0.222 0.053 0.323l-0.002-0.007 0.726 2.178-1.224 0.611c-0.33 0.168-0.553 0.505-0.553 0.895 0 0.001 0 0.001 0 0.002v-0 1.382l-1.447 0.723c-0.331 0.168-0.554 0.505-0.554 0.895 0 0.163 0.039 0.317 0.108 0.453l-0.003-0.006 1 2c0.168 0.33 0.505 0.553 0.895 0.553 0 0 0 0 0.001 0h4c0.276-0 0.526-0.112 0.707-0.293l0.833-0.833 2.19-0.73 2.856 2.856-1.293 1.293c-0.074 0.074-0.137 0.16-0.185 0.254l-0.003 0.006-1 2c-0.066 0.13-0.105 0.284-0.105 0.447 0 0.276 0.112 0.526 0.293 0.707v0l1 1c0.181 0.181 0.431 0.293 0.707 0.293h1c0.276-0 0.526-0.112 0.707-0.293l1.293-1.293 0.293 0.293c0.181 0.181 0.431 0.292 0.707 0.292 0.389 0 0.727-0.222 0.892-0.547l0.003-0.006 0.105-0.211v0.764c0 0 0 0 0 0 0 0.389 0.223 0.727 0.547 0.892l0.006 0.003 1.447 0.723v0.382c0 0 0 0 0 0 0 0.552 0.448 1 1 1 0.163 0 0.317-0.039 0.453-0.108l-0.006 0.003 4-2c0.194-0.097 0.35-0.254 0.448-0.448l1-2c0.067-0.13 0.106-0.285 0.106-0.448 0-0.552-0.448-1-1-1-0.163 0-0.317 0.039-0.454 0.109l0.006-0.003-1.106 0.553-0.138-0.277 4.206-2.524c0.163-0.099 0.293-0.238 0.377-0.404l0.003-0.006 0.723-1.447h0.382c0 0 0 0 0 0 0.552 0 1-0.448 1-1 0-0.163-0.039-0.317-0.108-0.453l0.003 0.006-0.777-1.553zM28.105 14.553c-0.14 0.281-0.14 0.613 0 0.894l0.356 0.71c-0.152 0.098-0.273 0.232-0.353 0.39l-0.003 0.006-0.87 1.74-4.75 2.85c-0.293 0.178-0.485 0.495-0.485 0.857 0 0.163 0.039 0.317 0.108 0.452l-0.003-0.006 1 2c0.054 0.108 0.124 0.2 0.207 0.28l-1.47 0.734c-0.098-0.152-0.232-0.273-0.389-0.353l-0.006-0.003-1.447-0.723v-0.146l0.895-1.789c0.066-0.13 0.105-0.283 0.105-0.446 0-0.552-0.448-1-1-1.001h-2c-0 0-0 0-0 0-0.389 0-0.727 0.223-0.892 0.547l-0.003 0.006-0.379 0.759-0.019-0.019c-0.181-0.181-0.431-0.293-0.707-0.293s-0.526 0.112-0.707 0.293l-1.707 1.707h-0.172l-0.197-0.197 0.605-1.21 1.885-1.886c0.181-0.181 0.293-0.431 0.293-0.707s-0.112-0.526-0.293-0.707l-4-4c-0.18-0.181-0.43-0.294-0.706-0.294-0.113 0-0.222 0.019-0.324 0.054l0.007-0.002-3 1c-0.147 0.050-0.281 0.132-0.391 0.242l-0.707 0.707h-2.968l-0.276-0.553 1.105-0.552c0.33-0.168 0.553-0.505 0.553-0.895 0-0 0-0 0-0.001v0-1.382l1.447-0.723c0.331-0.168 0.553-0.505 0.553-0.895 0-0.113-0.019-0.222-0.053-0.323l0.002 0.007-0.684-2.052 1.704-0.568 4.66 1.865c0.11 0.045 0.237 0.071 0.371 0.071 0.276 0 0.526-0.112 0.707-0.293v0l0.020-0.019 0.378 0.76c0.168 0.33 0.505 0.553 0.895 0.553 0.346 0 0.651-0.176 0.83-0.442l0.002-0.004 1.786-2.679 2.382-0.595v0.719c0 0.276 0.112 0.526 0.293 0.707l2 2c0.181 0.181 0.431 0.293 0.707 0.293h2c0 0.466 0.319 0.857 0.75 0.969l0.007 0.002 2.79 0.698-0.442 0.885z"></path>
</symbol>
  </defs>
</svg>